PathFileType	4	(X/Y/Z)	E:/New_biomech_experiments/2 Elbow flexion/Shreyas_pp_27_6_24_t02.trc	
DataRate	CameraRate	NumFrames	NumMarkers	Units	OrigDataRate	OrigDataStartFrame	OrigNumFrames	
120.00	120.00	47	3	m	120.00	1	5903	
Frame#	Time	r_humerus_epicondyle			r_acromion			r_radius_styloid			
		X1	Y1	Z1	X2	Y2	Z2	X3	Y3	Z3	

1	0.000	-0.02075	0.48268	0.23989	0.00296	0.82725	0.21722	-0.00095	0.21970	0.28331 
2	0.008	-0.02083	0.48272	0.23984	0.00281	0.82730	0.21714	-0.00098	0.21974	0.28326 
3	0.017	-0.02092	0.48276	0.23979	0.00266	0.82735	0.21705	-0.00102	0.21979	0.28322 
4	0.025	-0.02101	0.48280	0.23974	0.00252	0.82739	0.21696	-0.00105	0.21983	0.28318 
5	0.033	-0.02109	0.48284	0.23969	0.00238	0.82743	0.21687	-0.00108	0.21986	0.28313 
6	0.042	-0.02118	0.48287	0.23964	0.00225	0.82746	0.21679	-0.00111	0.21989	0.28309 
7	0.050	-0.02127	0.48289	0.23959	0.00213	0.82749	0.21670	-0.00115	0.21991	0.28306 
8	0.058	-0.02136	0.48291	0.23954	0.00201	0.82751	0.21661	-0.00118	0.21993	0.28303 
9	0.067	-0.02146	0.48292	0.23949	0.00190	0.82753	0.21652	-0.00121	0.21995	0.28300 
10	0.075	-0.02155	0.48292	0.23945	0.00179	0.82754	0.21643	-0.00125	0.21996	0.28297 
11	0.083	-0.02163	0.48293	0.23940	0.00169	0.82755	0.21634	-0.00128	0.21997	0.28295 
12	0.092	-0.02171	0.48293	0.23936	0.00159	0.82756	0.21624	-0.00132	0.21997	0.28294 
13	0.100	-0.02179	0.48293	0.23931	0.00150	0.82756	0.21614	-0.00135	0.21998	0.28293 
14	0.108	-0.02185	0.48293	0.23927	0.00142	0.82757	0.21604	-0.00139	0.22000	0.28293 
15	0.117	-0.02191	0.48293	0.23922	0.00134	0.82757	0.21593	-0.00142	0.22001	0.28294 
16	0.125	-0.02197	0.48293	0.23918	0.00127	0.82757	0.21583	-0.00144	0.22003	0.28295 
17	0.133	-0.02202	0.48294	0.23914	0.00120	0.82757	0.21572	-0.00146	0.22005	0.28297 
18	0.142	-0.02207	0.48294	0.23910	0.00115	0.82757	0.21561	-0.00147	0.22008	0.28300 
19	0.150	-0.02211	0.48295	0.23907	0.00110	0.82757	0.21550	-0.00146	0.22011	0.28303 
20	0.158	-0.02214	0.48296	0.23904	0.00107	0.82757	0.21539	-0.00145	0.22013	0.28307 
21	0.167	-0.02217	0.48296	0.23902	0.00104	0.82757	0.21528	-0.00143	0.22016	0.28312 
22	0.175	-0.02218	0.48297	0.23900	0.00102	0.82757	0.21517	-0.00140	0.22019	0.28317 
23	0.183	-0.02219	0.48298	0.23898	0.00100	0.82757	0.21506	-0.00136	0.22022	0.28323 
24	0.192	-0.02219	0.48300	0.23897	0.00099	0.82757	0.21496	-0.00132	0.22025	0.28329 
25	0.200	-0.02218	0.48302	0.23896	0.00098	0.82758	0.21487	-0.00127	0.22028	0.28335 
26	0.208	-0.02217	0.48304	0.23895	0.00097	0.82759	0.21477	-0.00121	0.22032	0.28341 
27	0.217	-0.02215	0.48307	0.23895	0.00097	0.82761	0.21468	-0.00114	0.22036	0.28347 
28	0.225	-0.02213	0.48310	0.23895	0.00097	0.82763	0.21459	-0.00107	0.22041	0.28353 
29	0.233	-0.02211	0.48314	0.23895	0.00096	0.82766	0.21451	-0.00099	0.22046	0.28359 
30	0.242	-0.02209	0.48317	0.23896	0.00096	0.82769	0.21443	-0.00090	0.22051	0.28366 
31	0.250	-0.02207	0.48321	0.23897	0.00096	0.82771	0.21435	-0.00080	0.22056	0.28372 
32	0.258	-0.02205	0.48324	0.23898	0.00095	0.82774	0.21427	-0.00070	0.22061	0.28378 
33	0.267	-0.02203	0.48328	0.23899	0.00093	0.82777	0.21420	-0.00060	0.22066	0.28385 
34	0.275	-0.02201	0.48330	0.23900	0.00092	0.82780	0.21413	-0.00049	0.22070	0.28391 
35	0.283	-0.02199	0.48333	0.23902	0.00089	0.82782	0.21407	-0.00039	0.22074	0.28397 
36	0.292	-0.02198	0.48335	0.23903	0.00086	0.82784	0.21400	-0.00029	0.22078	0.28404 
37	0.300	-0.02196	0.48337	0.23904	0.00082	0.82785	0.21395	-0.00019	0.22081	0.28410 
38	0.308	-0.02194	0.48338	0.23906	0.00079	0.82787	0.21389	-0.00010	0.22083	0.28416 
39	0.317	-0.02191	0.48339	0.23907	0.00075	0.82787	0.21384	-0.00001	0.22085	0.28421 
40	0.325	-0.02189	0.48340	0.23908	0.00071	0.82788	0.21379	0.00007	0.22087	0.28427 
41	0.333	-0.02187	0.48340	0.23909	0.00068	0.82787	0.21375	0.00016	0.22088	0.28433 
42	0.342	-0.02184	0.48340	0.23910	0.00065	0.82786	0.21371	0.00024	0.22088	0.28439 
43	0.350	-0.02182	0.48339	0.23911	0.00063	0.82784	0.21368	0.00032	0.22087	0.28445 
44	0.358	-0.02180	0.48337	0.23913	0.00061	0.82782	0.21365	0.00040	0.22085	0.28451 
45	0.367	-0.02178	0.48335	0.23916	0.00060	0.82779	0.21363	0.00048	0.22083	0.28457 
46	0.375	-0.02177	0.48333	0.23918	0.00060	0.82776	0.21361	0.00056	0.22081	0.28462 
47	0.383	-0.02176	0.48330	0.23921	0.00060	0.82772	0.21360	0.00063	0.22078	0.28467 
